<?xml version="1.0" standalone="no"?>
<!DOCTYPE svg PUBLIC "-//W3C//DTD SVG 1.0//EN" "http://www.w3.org/TR/2001/REC-SVG-20010904/DTD/svg10.dtd">
<svg xmlns="http://www.w3.org/2000/svg" xmlns:xlink="http://www.w3.org/1999/xlink" id="body_1" width="16" height="16">

<g transform="matrix(1.0001551 0 0 1.0001551 -0 -3.052231E-05)">
	<g>
		<g>
            <path d="M671.504 577.829L781.989 145.21997L902.86 145.21997L902.86 77.21997L729.174 77.21997L703.128 179.2L0 178.697L74.753 577.826L671.50397 577.826L671.50397 577.829L671.504 577.829zM685.766 247.188L618.68896 509.828L131.199 509.828L81.928 246.756L685.766 247.188z" stroke="none" fill="#000000" fill-rule="nonzero" />
            <path d="M578.418 825.641C 638.379 825.641 687.161 776.858 687.161 716.897C 687.161 656.936 638.379 608.15497 578.418 608.15497L578.418 608.15497L168.717 608.15497C 108.756 608.15497 59.972992 656.936 59.972992 716.897C 59.972992 776.858 108.75499 825.641 168.717 825.641C 228.679 825.641 277.46 776.858 277.46 716.897C 277.46 702.49695 274.63898 688.745 269.533 676.15497L269.533 676.15497L477.602 676.15497C 472.495 688.745 469.67398 702.49695 469.67398 716.897C 469.675 776.858 518.457 825.641 578.418 825.641zM209.46 716.897C 209.46 739.36395 191.18301 757.641 168.71701 757.641C 146.251 757.641 127.97301 739.364 127.97301 716.897C 127.97301 694.43195 146.25 676.15497 168.71701 676.15497C 191.183 676.155 209.46 694.432 209.46 716.897zM619.162 716.897C 619.162 739.36395 600.885 757.641 578.419 757.641C 555.953 757.641 537.676 739.364 537.676 716.897C 537.676 694.43195 555.953 676.15497 578.419 676.15497C 600.885 676.15497 619.162 694.432 619.162 716.897z" stroke="none" fill="#000000" fill-rule="nonzero" />
		</g>
	</g>
	<g>
	</g>
	<g>
	</g>
	<g>
	</g>
	<g>
	</g>
	<g>
	</g>
	<g>
	</g>
	<g>
	</g>
	<g>
	</g>
	<g>
	</g>
	<g>
	</g>
	<g>
	</g>
	<g>
	</g>
	<g>
	</g>
	<g>
	</g>
	<g>
	</g>
</g>
</svg>